<svg id="Artwork" xmlns="http://www.w3.org/2000/svg" viewBox="0 0 100 100"><defs><style>.cls-1,.cls-2{fill:none;stroke-linecap:round;stroke-linejoin:round;stroke-width:1.5px;}.cls-1{stroke:#f47c00;}.cls-2{stroke:#002d6a;}</style></defs><title>Artboard 2</title><path class="cls-1" d="M27.77,88V75.48h-7.9a4.2,4.2,0,0,1-4.19-4.19V55.18l.05-.06H11.15A2.33,2.33,0,0,1,8.88,53c-.18-2.15,1.88-4.6,3.2-6.47,1.57-2.22,3.64-4,3.6-7,0-2.31,0-4.63,0-6.95,0-21.57,26.55-29,43.1-20.91a19.05,19.05,0,0,1,6.88,5.5,18.08,18.08,0,0,1,3.55,13.52,15.26,15.26,0,0,1-2.07,5.62A14.59,14.59,0,0,1,60.67,42a13.39,13.39,0,0,1-3.09,1,13.75,13.75,0,0,1-6.12-.2,11.85,11.85,0,0,1-8.52-12.44,9.64,9.64,0,0,1,8.27-8.8,8.47,8.47,0,0,1,6.52,2,5.78,5.78,0,0,1,1.48,6.73,5.08,5.08,0,0,1-1,1.3"/><path class="cls-2" d="M72.23,87.76V75.48h7.9a4.2,4.2,0,0,0,4.19-4.19V55.18l0-.06h4.58A2.33,2.33,0,0,0,91.12,53c.18-2.15-1.88-4.6-3.2-6.47-1.57-2.22-3.64-4-3.6-7,0-2.31,0-4.63,0-6.95A23,23,0,0,0,68.2,10.66a39.93,39.93,0,0,0-7-1.55"/><path class="cls-2" d="M36.71,16.53c-10,8.25-9.3,20.94-5.43,32.16,4.41,12.79,12.24,22.56,12.24,36.6v2.47"/></svg>