<svg id="Artwork" xmlns="http://www.w3.org/2000/svg" viewBox="0 0 100 100"><defs><style>.cls-1,.cls-2,.cls-3{fill:none;stroke-linecap:round;stroke-linejoin:round;}.cls-1{stroke:#f27d21;}.cls-1,.cls-2{stroke-width:1.5px;}.cls-2,.cls-3{stroke:#002d6a;}.cls-3{stroke-width:1.6px;}</style></defs><title>Artboard 4 copy 4</title><path class="cls-1" d="M92.23,56.76V43.24H84.31A34.79,34.79,0,0,0,79,30.51l5.6-5.6-9.55-9.55L69.49,21a34.79,34.79,0,0,0-12.73-5.27V7.77H43.24v7.92A34.79,34.79,0,0,0,30.51,21l-5.6-5.6-9.55,9.55,5.6,5.6a34.79,34.79,0,0,0-5.27,12.73H7.77V56.76h7.92A34.79,34.79,0,0,0,21,69.49l-5.6,5.6,9.55,9.55,5.6-5.6a34.79,34.79,0,0,0,12.73,5.27v7.92H56.76V84.31A34.79,34.79,0,0,0,69.49,79l5.6,5.6,9.55-9.55L79,69.49a34.79,34.79,0,0,0,5.27-12.73Z"/><circle class="cls-2" cx="50" cy="50" r="21.66"/><line class="cls-2" x1="50" y1="28.34" x2="50" y2="71.66"/><line class="cls-2" x1="28.34" y1="50" x2="71.66" y2="50"/><path class="cls-3" d="M65.79,35.24c-2.91,4.4-8.89,7.42-15.79,7.42-6.71,0-12.55-2.86-15.55-7.07"/><path class="cls-2" d="M65.79,35.24c-2.91,4.4-8.89,7.42-15.79,7.42-6.71,0-12.55-2.86-15.55-7.07"/><path class="cls-2" d="M65.79,64.11c-2.91-4.4-8.89-7.42-15.79-7.42-6.71,0-12.55,2.86-15.55,7.06"/><ellipse class="cls-2" cx="49.85" cy="50" rx="12" ry="21.66"/></svg>