<svg id="Layer_1" data-name="Layer 1" xmlns="http://www.w3.org/2000/svg" viewBox="0 0 136 136"><defs><style>.cls-1{fill:#002d6a;}.cls-2{fill:none;}.cls-2,.cls-3{stroke:#002d6a;stroke-miterlimit:10;}.cls-2,.cls-3,.cls-4{stroke-width:2px;}.cls-3,.cls-4{fill:#fff;}.cls-4{stroke:#f98e2c;stroke-linecap:round;stroke-linejoin:round;}</style></defs><title>Artboard 1</title><path class="cls-1" d="M68,2A66,66,0,1,1,2,68,66.08,66.08,0,0,1,68,2m0-2a68,68,0,1,0,68,68A68,68,0,0,0,68,0Z"/><polygon class="cls-2" points="39.39 50.47 39.39 84.48 68.84 101.48 98.29 84.48 98.29 50.47 68.84 33.46 39.39 50.47"/><circle class="cls-3" cx="67.58" cy="33.92" r="6.31"/><line class="cls-3" x1="38.63" y1="84.7" x2="98.64" y2="50.41"/><line class="cls-3" x1="98.64" y1="84.7" x2="38.63" y2="50.41"/><circle class="cls-3" cx="67.58" cy="102.08" r="6.31"/><circle class="cls-3" cx="38.13" cy="84.41" r="6.31"/><circle class="cls-3" cx="38.13" cy="49.91" r="6.31"/><circle class="cls-3" cx="97.87" cy="84.41" r="6.31"/><circle class="cls-3" cx="97.87" cy="49.91" r="6.31"/><line class="cls-3" x1="67.16" y1="95.77" x2="67.16" y2="40.23"/><polygon class="cls-4" points="78.1 76.42 78.1 81.44 67.09 76.42 53.7 76.42 53.7 57.9 82.31 57.9 82.31 76.42 78.1 76.42"/></svg>