<svg id="Artwork" xmlns="http://www.w3.org/2000/svg" viewBox="0 0 100 100"><defs><style>.cls-1,.cls-2,.cls-3{fill:none;stroke-linecap:round;stroke-linejoin:round;}.cls-1,.cls-2{stroke:#f47c00;}.cls-1,.cls-3{stroke-width:1.5px;}.cls-2{stroke-width:1.35px;}.cls-3{stroke:#002d6a;}</style></defs><title>Artboard 4 copy</title><path class="cls-1" d="M17.86,52.45a33.26,33.26,0,1,1,64.27-.27"/><path class="cls-1" d="M38.69,68.12C35.4,62,33.34,53.34,33.34,43.69c0-18.38,7.46-33.27,16.66-33.27S66.66,25.31,66.66,43.69c0,9.67-2.07,18.39-5.38,24.46"/><line class="cls-1" x1="62.12" y1="43.69" x2="83.2" y2="43.69"/><line class="cls-2" x1="16.69" y1="43.69" x2="37.04" y2="43.69"/><line class="cls-1" x1="49.95" y1="35.09" x2="49.95" y2="10.59"/><path class="cls-1" d="M75.44,22.35a48.1,48.1,0,0,1-25.49,7,48.1,48.1,0,0,1-25.37-7"/><circle class="cls-3" cx="79.07" cy="60.78" r="8.94"/><path class="cls-3" d="M65.9,74.85A4.84,4.84,0,0,1,70.73,70H87.29a4.84,4.84,0,0,1,4.83,4.83"/><path class="cls-3" d="M67.81,89.26,65.73,73.93a5.83,5.83,0,0,0-5.81-5.81H40a5.83,5.83,0,0,0-5.81,5.81L32,89.07"/><circle class="cls-3" cx="21.05" cy="60.78" r="8.94"/><path class="cls-3" d="M7.88,74.85A4.84,4.84,0,0,1,12.71,70H29.27a4.84,4.84,0,0,1,4.83,4.83"/><line class="cls-3" x1="24.95" y1="89.58" x2="74.95" y2="89.58"/><path class="cls-3" d="M38.89,47.91v9.2A10.9,10.9,0,0,0,49.75,68H50A10.9,10.9,0,0,0,60.91,57.11V48.78"/><path class="cls-3" d="M44.15,37.59a6.59,6.59,0,0,0-6.59,6.59,5.91,5.91,0,0,0,1.53,4.14l5.27-4.18"/><path class="cls-3" d="M58,45a11.23,11.23,0,0,1-7.3,2.7,7.69,7.69,0,0,1-6-3.3,5.69,5.69,0,0,1,0-6.61c2.37-3.1,7-3.09,10.31-2.27s6.92,3.84,7.12,8.14a6.88,6.88,0,0,1-1.13,4.66l-3.66-2.15"/><path class="cls-3" d="M46.56,41a3.74,3.74,0,0,0,.62,1.52A5.18,5.18,0,0,0,52,44.08a8,8,0,0,0,3.45-1.64"/><path class="cls-3" d="M52.37,68.36v1A2.43,2.43,0,0,1,50,71.76h0a2.43,2.43,0,0,1-2.41-2.42V68.26"/><path class="cls-3" d="M37.89,89.52,37.2,74.46a.07.07,0,0,1,.07-.07H62.64a.07.07,0,0,1,.07.07l-.79,15.1"/></svg>