<svg id="Layer_1" data-name="Layer 1" xmlns="http://www.w3.org/2000/svg" viewBox="0 0 136 136"><defs><style>.cls-1{fill:#002d6a;}.cls-2{fill:#fff;}.cls-2,.cls-3{stroke:#002d6a;}.cls-2,.cls-3,.cls-4{stroke-linecap:round;stroke-linejoin:round;stroke-width:2px;}.cls-3,.cls-4{fill:none;}.cls-4{stroke:#f98e2c;}</style></defs><title>Artboard 4</title><path class="cls-1" d="M68,2A66,66,0,1,1,2,68,66.08,66.08,0,0,1,68,2m0-2a68,68,0,1,0,68,68A68,68,0,0,0,68,0Z"/><rect class="cls-2" x="26.77" y="46.94" width="82.47" height="54.68" rx="3.59"/><rect class="cls-3" x="35.73" y="56.8" width="27.79" height="35.85"/><line class="cls-3" x1="70.69" y1="56.8" x2="100.27" y2="56.8"/><line class="cls-3" x1="70.69" y1="72.93" x2="100.27" y2="72.93"/><line class="cls-3" x1="82.31" y1="81" x2="100.27" y2="81"/><line class="cls-3" x1="70.69" y1="64.86" x2="100.27" y2="64.86"/><path class="cls-2" d="M68.9,34.39h0a5.38,5.38,0,0,1,5.38,5.38V51.42a0,0,0,0,1,0,0H63.52a0,0,0,0,1,0,0V39.76A5.38,5.38,0,0,1,68.9,34.39Z"/><circle class="cls-4" cx="68.9" cy="39.76" r="1.79"/><circle class="cls-4" cx="49.18" cy="69.34" r="6.27"/><path class="cls-4" d="M59,86.38a9.86,9.86,0,0,0-19.72,0Z"/></svg>