<svg id="Layer_1" data-name="Layer 1" xmlns="http://www.w3.org/2000/svg" viewBox="0 0 136 136"><defs><style>.cls-1{fill:#002d6a;}.cls-2,.cls-4,.cls-5{fill:#fff;}.cls-2,.cls-3{stroke:#002d6a;}.cls-2,.cls-3,.cls-4,.cls-5{stroke-linecap:round;stroke-linejoin:round;stroke-width:2px;}.cls-3{fill:none;}.cls-4{stroke:#213366;}.cls-5{stroke:#f98e2c;}</style></defs><title>Artboard 3</title><path class="cls-1" d="M68,2A66,66,0,1,1,2,68,66.08,66.08,0,0,1,68,2m0-2a68,68,0,1,0,68,68A68,68,0,0,0,68,0Z"/><circle class="cls-2" cx="68.22" cy="72.04" r="33.76"/><path class="cls-3" d="M45.13,95.73a32.75,32.75,0,0,1,46.39.32"/><path class="cls-3" d="M92.08,48.3a33.83,33.83,0,0,1-46.95,0"/><ellipse class="cls-3" cx="67.81" cy="72.04" rx="17.28" ry="33.76"/><line class="cls-2" x1="34.46" y1="72.04" x2="101.97" y2="72.04"/><line class="cls-4" x1="68.22" y1="105.8" x2="68.22" y2="38.28"/><path class="cls-5" d="M103.31,47.48c1.86-7.25-3-14.76-10.86-16.78s-15.74,2.24-17.59,9.49a11.22,11.22,0,0,0-.25,1.26l-.06-.06c-2.16,12,7.73,30.81,7.73,30.81S99.17,60.26,103,48.68l-.08,0C103.07,48.31,103.2,47.9,103.31,47.48Z"/><circle class="cls-5" cx="88.71" cy="45.11" r="6.83"/><path class="cls-5" d="M42,60.49c-1.81-3.83-6.64-5.34-10.79-3.38s-6,6.65-4.23,10.48c.1.22.22.43.34.64h0c3.39,6,14.49,10.63,14.49,10.63s3-11.3.53-17.73l0,.05A5.72,5.72,0,0,0,42,60.49Z"/><circle class="cls-5" cx="34.86" cy="64.4" r="3.62"/></svg>